<svg width="50" height="50" viewBox="0 0 50 50" fill="none" xmlns="http://www.w3.org/2000/svg">
<circle cx="25" cy="25" r="25" fill="black"/>
<path d="M25 15C19.477 15 15 19.477 15 25C15 30.523 19.477 35 25 35C30.523 35 35 30.523 35 25C35 19.477 30.523 15 25 15ZM25 17C29.418 17 33 20.582 33 25C33 26.5973 32.5254 28.0811 31.7188 29.3301L30.9492 28.7344C29.3972 27.5374 26.537 27 25 27C23.463 27 20.6018 27.5374 19.0508 28.7344L18.2812 29.332C17.474 28.0828 17 26.5979 17 25C17 20.582 20.582 17 25 17ZM25 18.75C23.208 18.75 21.75 20.208 21.75 22C21.75 23.792 23.208 25.25 25 25.25C26.792 25.25 28.25 23.792 28.25 22C28.25 20.208 26.792 18.75 25 18.75ZM25 20.75C25.689 20.75 26.25 21.311 26.25 22C26.25 22.689 25.689 23.25 25 23.25C24.311 23.25 23.75 22.689 23.75 22C23.75 21.311 24.311 20.75 25 20.75ZM25 29C28.1007 29 29.7681 30.1685 30.5488 30.7539C29.11 32.1418 27.1569 33 25 33C22.8431 33 20.89 32.1418 19.4512 30.7539C20.2319 30.1685 21.8993 29 25 29ZM30.9121 30.375C30.8024 30.4955 30.6929 30.6168 30.5762 30.7305C30.6926 30.6175 30.8015 30.495 30.9121 30.375Z" fill="white"/>
</svg>
