<svg width="24" height="24" viewBox="0 0 24 24" fill="none" xmlns="http://www.w3.org/2000/svg">
<path d="M6.09395 3.19995C5.4896 3.19995 4.93244 3.54481 4.6627 4.08589L3.2002 7.01089V7.19995V9.59995V19.2C3.2002 20.084 3.9162 20.8 4.8002 20.8H19.2002C20.0842 20.8 20.8002 20.084 20.8002 19.2V9.59995V7.19995V7.01089L19.3361 4.08433C19.066 3.54442 18.51 3.19995 17.9064 3.19995H6.09395ZM6.09551 4.79995H17.9049L19.1049 7.19995H4.89551L6.09551 4.79995ZM9.6002 8.79995H14.4002C14.8418 8.79995 15.2002 9.15835 15.2002 9.59995C15.2002 10.0416 14.8418 10.4 14.4002 10.4H9.6002C9.1586 10.4 8.8002 10.0416 8.8002 9.59995C8.8002 9.15835 9.1586 8.79995 9.6002 8.79995Z" fill="white"/>
</svg>
