<svg width="24" height="24" viewBox="0 0 24 24" fill="none" xmlns="http://www.w3.org/2000/svg">
<path d="M6.4 2.3999C5.5176 2.3999 4.8 3.1175 4.8 3.9999V11.1999H11.6688L9.83438 9.36553C9.52157 9.05273 9.52157 8.54708 9.83438 8.23428C10.1472 7.92148 10.6528 7.92148 10.9656 8.23428L14.1656 11.4343C14.4784 11.7471 14.4784 12.2527 14.1656 12.5655L10.9656 15.7655C10.8096 15.9215 10.6048 15.9999 10.4 15.9999C10.1952 15.9999 9.99038 15.9215 9.83438 15.7655C9.52157 15.4527 9.52157 14.9471 9.83438 14.6343L11.6688 12.7999H4.8V19.9999C4.8 20.8823 5.5176 21.5999 6.4 21.5999H17.6C18.4824 21.5999 19.2 20.8823 19.2 19.9999V3.9999C19.2 3.1175 18.4824 2.3999 17.6 2.3999H6.4ZM4.8 12.7999V11.1999H0.8C0.3584 11.1999 0 11.5583 0 11.9999C0 12.4415 0.3584 12.7999 0.8 12.7999H4.8Z" fill="white"/>
</svg>
