<svg width="24" height="24" viewBox="0 0 24 24" fill="none" xmlns="http://www.w3.org/2000/svg">
<path d="M9.5 2C9.10218 2 8.72064 2.15804 8.43934 2.43934C8.15804 2.72064 8 3.10218 8 3.5C8 3.89782 8.15804 4.27936 8.43934 4.56066C8.72064 4.84196 9.10218 5 9.5 5C9.89782 5 10.2794 4.84196 10.5607 4.56066C10.842 4.27936 11 3.89782 11 3.5C11 3.10218 10.842 2.72064 10.5607 2.43934C10.2794 2.15804 9.89782 2 9.5 2ZM14.5 2C14.1022 2 13.7206 2.15804 13.4393 2.43934C13.158 2.72064 13 3.10218 13 3.5C13 3.89782 13.158 4.27936 13.4393 4.56066C13.7206 4.84196 14.1022 5 14.5 5C14.8978 5 15.2794 4.84196 15.5607 4.56066C15.842 4.27936 16 3.89782 16 3.5C16 3.10218 15.842 2.72064 15.5607 2.43934C15.2794 2.15804 14.8978 2 14.5 2ZM12 6C6.922 6 2.92581 6.9873 2.75781 7.0293L3.24219 8.9707C3.25198 8.96813 3.53508 8.9008 4.00781 8.80469C3.20714 10.918 2 14.7794 2 19C2 20.121 2.879 21 4 21H20C21.121 21 22 20.121 22 19C22 14.7794 20.7929 10.918 19.9922 8.80469C20.4649 8.9008 20.748 8.96813 20.7578 8.9707L21.2422 7.0293C21.0742 6.9873 17.078 6 12 6ZM12 8C14.1789 8 16.1464 8.19804 17.6777 8.41406C18.1361 9.44912 20 13.9381 20 19H4C4 13.9521 5.86448 9.45124 6.32227 8.41406C7.85358 8.19804 9.82112 8 12 8Z" fill="white"/>
</svg>
