<svg width="24" height="24" viewBox="0 0 24 24" fill="none" xmlns="http://www.w3.org/2000/svg">
<path d="M11.1691 1.5C16.4984 1.5 20.8381 5.83975 20.8381 11.1691C20.8381 13.4844 20.0261 15.607 18.6626 17.2727L22.5 21.1101L21.1101 22.5L17.2727 18.6626C15.607 20.0261 13.4844 20.8381 11.1691 20.8381C5.83975 20.8381 1.5 16.4984 1.5 11.1691C1.5 5.83975 5.83975 1.5 11.1691 1.5ZM11.1691 3.43381C6.88597 3.43381 3.43381 6.88597 3.43381 11.1691C3.43381 15.4522 6.88597 18.9043 11.1691 18.9043C15.4522 18.9043 18.9043 15.4522 18.9043 11.1691C18.9043 6.88597 15.4522 3.43381 11.1691 3.43381Z" fill="black"/>
</svg>
