<svg width="18" height="16" viewBox="0 0 18 16" fill="none" xmlns="http://www.w3.org/2000/svg">
<path d="M12.7493 0.333313C10.3368 0.333313 8.99935 2.07498 8.99935 2.07498C8.99935 2.07498 7.66185 0.333313 5.24935 0.333313C2.71768 0.333313 0.666016 2.38498 0.666016 4.91665C0.666016 9.49998 8.99935 15.3333 8.99935 15.3333C8.99935 15.3333 17.3327 9.49998 17.3327 4.91665C17.3327 2.38498 15.281 0.333313 12.7493 0.333313ZM8.99935 13.265C6.09685 11.0375 2.33268 7.33831 2.33268 4.91665C2.33268 3.30831 3.64102 1.99998 5.24935 1.99998C7.25102 1.99998 8.99935 4.42248 8.99935 4.42248C8.99935 4.42248 10.7827 1.99998 12.7493 1.99998C14.3577 1.99998 15.666 3.30831 15.666 4.91665C15.666 7.33831 11.9018 11.0375 8.99935 13.265Z" fill="black"/>
</svg>
